# xmcd
#
# Track frame offsets:
# 150
# 31183
# 50841
# 87055
# 114345
# 158513
# 178841
# 201655
# 217781
# 240725
#
# Disc length: 3461 seconds
#
# Revision: 0
# Processed by: cddbd v1.4PL0 Copyright (c) Steve Scherf et al.
# Submitted via: Audion 3.0.2 (http://www.panic.com/audion/)
#
DISCID=800d830a
DTITLE=DNTEL - Something Always Goes Wrong
DYEAR=1900
DGENRE=
TTITLE0=in which our hero begins his long and arduous quest
TTITLE1=in which our hero finds a faithful sidekick
TTITLE2=in which our hero is put under a spell
TTITLE3=in which our hero dodges bullets and swords
TTITLE4=in which our hero frees the damsel in distress
TTITLE5=in which our hero is decapitated by the evil king
TTITLE6=in which our hero begins his long and arduous quest (Seq remix)
TTITLE7=in which our hero was taken by surprise (remixed by Languis)
TTITLE8=the S.O.S.
TTITLE9=a machine and a memory keep you alive
EXTD=
EXTT0=
EXTT1=
EXTT2=
EXTT3=
EXTT4=
EXTT5=
EXTT6=
EXTT7=
EXTT8=
EXTT9=
PLAYORDER=
